Coordinates
version=1
nRows=7
nColumns=40
inDegrees=yes

Units are S.I. units (second, meters, Newtons, ...)
If the header above contains a line with 'inDegrees', this indicates whether rotational values are in degrees (yes) or radians (no).

endheader
time	pelvis_tilt	pelvis_list	pelvis_rotation	pelvis_tx	pelvis_ty	pelvis_tz	hip_flexion_r	hip_adduction_r	hip_rotation_r	knee_angle_r	knee_angle_r_beta	ankle_angle_r	subtalar_angle_r	mtp_angle_r	hip_flexion_l	hip_adduction_l	hip_rotation_l	knee_angle_l	knee_angle_l_beta	ankle_angle_l	subtalar_angle_l	mtp_angle_l	lumbar_extension	lumbar_bending	lumbar_rotation	arm_flex_r	arm_add_r	arm_rot_r	elbow_flex_r	pro_sup_r	wrist_flex_r	wrist_dev_r	arm_flex_l	arm_add_l	arm_rot_l	elbow_flex_l	pro_sup_l	wrist_flex_l	wrist_dev_l
      3.98500000	    -33.97356329	      4.58107606	     -0.65430030	     -0.39274335	      0.66465819	     -0.92201761	     89.09148227	    -16.28007112	      2.27641212	     84.72142234	      1.47866777	     28.45073622	      0.00000000	      0.00000000	     83.64938488	    -10.69915619	     -1.15716221	     82.35110281	      1.43729789	     34.81149829	      0.00000000	      0.00000000	    -18.61029864	     -3.10987777	     -4.95796822	      3.38159241	    -44.86427732	     64.22832431	     81.98445736	     85.27358222	      0.00000000	      0.00000000	      0.05408189	    -52.30111154	     67.08943375	     90.65192554	     87.53810547	      0.00000000	      0.00000000
      3.99000000	    -33.88784362	      3.97654790	      0.13287105	     -0.39037496	      0.66904354	     -0.92282886	     88.06765812	    -16.99323893	      1.46643672	     84.10582510	      1.46792357	     28.35565586	      0.00000000	      0.00000000	     83.11752952	     -9.82004541	     -0.35036181	     81.44720167	      1.42152184	     34.57297316	      0.00000000	      0.00000000	    -17.74333701	     -2.25435768	     -5.48349894	      2.06933973	    -44.87672988	     62.09036256	     82.26893295	     85.24097729	      0.00000000	      0.00000000	     -1.53038908	    -52.15774287	     64.87188395	     90.91556729	     87.54385404	      0.00000000	      0.00000000
      3.99500000	    -33.18571072	      4.24015474	      0.09888778	     -0.38666165	      0.67464253	     -0.92257076	     86.65564862	    -17.02736048	      1.57431471	     83.41902591	      1.45593666	     28.14844193	      0.00000000	      0.00000000	     81.49061117	     -9.62675840	     -0.72162442	     80.58835707	      1.40653217	     34.44972406	      0.00000000	      0.00000000	    -17.45863849	     -2.59474648	     -5.60398879	      1.22377765	    -44.67662227	     60.77426631	     82.37469430	     85.20168994	      0.00000000	      0.00000000	     -2.64252462	    -51.95961607	     63.40495930	     90.99558125	     87.54680470	      0.00000000	      0.00000000
      4.00000000	    -32.86456709	      3.97467218	     -0.17760107	     -0.38367693	      0.67960914	     -0.92110389	     85.48138434	    -16.48485520	      1.27280995	     82.65222294	      1.44255342	     27.82550057	      0.00000000	      0.00000000	     80.49275419	     -9.99505945	     -0.56585870	     79.81553758	      1.39304392	     34.17043913	      0.00000000	      0.00000000	    -16.73766756	     -2.50554828	     -5.28444716	     -0.04358303	    -44.49542545	     58.79818104	     82.64399940	     85.13190170	      0.00000000	      0.00000000	     -4.30748249	    -52.07465004	     61.26331292	     91.57599649	     87.52866509	      0.00000000	      0.00000000
      4.00500000	    -31.34857978	      4.70653934	     -0.61010822	     -0.37789780	      0.68691072	     -0.92010190	     83.23608594	    -16.40843869	      1.79029426	     81.94988540	      1.43029532	     27.82082558	      0.00000000	      0.00000000	     77.54921437	    -10.06887012	     -1.63778399	     78.81750425	      1.37562496	     34.37027941	      0.00000000	      0.00000000	    -17.24982615	     -3.44677143	     -5.24637241	     -0.95842497	    -44.06896797	     57.38416405	     82.64711732	     85.10131681	      0.00000000	      0.00000000	     -5.54900460	    -51.96362075	     59.70135881	     91.72551069	     87.52996432	      0.00000000	      0.00000000
      4.01000000	    -31.06222296	      4.32231843	     -0.30961293	     -0.37514490	      0.69248789	     -0.91993811	     81.98649658	    -16.50279873	      1.28230541	     81.06737951	      1.41489269	     27.30810879	      0.00000000	      0.00000000	     76.61961284	     -9.73064396	     -1.15586023	     77.77108570	      1.35736151	     33.76744348	      0.00000000	      0.00000000	    -16.42312687	     -3.04633787	     -5.40107575	     -1.66701798	    -44.14553426	     56.50268280	     83.16518211	     85.08933723	      0.00000000	      0.00000000	     -6.31774520	    -52.00435391	     58.95327719	     92.27246936	     87.52009289	      0.00000000	      0.00000000
      4.01500000	    -30.69443500	      3.96615266	     -0.51378682	     -0.37227000	      0.69775034	     -0.91869877	     80.72994049	    -16.03844922	      0.84390494	     80.23429899	      1.40035269	     26.77269710	      0.00000000	      0.00000000	     75.64966353	    -10.05910883	     -0.90298631	     77.05613790	      1.34488332	     33.23180065	      0.00000000	      0.00000000	    -15.76606791	     -2.81198843	     -5.07723011	     -3.51147280	    -44.30994194	     54.08872242	     84.34042568	     85.04139541	      0.00000000	      0.00000000	     -8.18669045	    -52.06657631	     56.62172400	     93.34165292	     87.46599410	      0.00000000	      0.00000000
